<?xml version="1.0" encoding="iso-8859-1"?>
<!-- Generator: Adobe Illustrator 19.0.0, SVG Export Plug-In . SVG Version: 6.00 Build 0)  -->
<svg version="1.1" id="Capa_1" xmlns="http://www.w3.org/2000/svg" xmlns:xlink="http://www.w3.org/1999/xlink" x="0px" y="0px"
	 viewBox="0 0 230 230" style="enable-background:new 0 0 230 230;" xml:space="preserve">
<g>
	<path d="M67.596,126.503c0-5.272-6.443-8.503-10.962-8.503H39v16h17.634C61.153,134,67.596,132.025,67.596,126.503z"/>
	<path d="M0,176h230V55H0V176z M150,85.172c9,0,18.542,0.084,27.831,0.084c13.807,0.083,21.07,9.288,21.07,19.412
		c0,8.033-4.097,16.15-15.225,18.409L201,143.075V144h-12.325l-17.07-20H161v20h-11V85.172z M106.589,85h12.049l26.275,59h-12.05
		l-4.936-11H97.301l-5.021,11H80.315L106.589,85z M29,85c9,0,18.346,0,27.634,0C68.181,85,76.8,90.316,76.8,102.114
		c0,4.518-2.176,8.933-7.614,11.36c6.862,2.092,9.372,9.489,9.372,13.171c0,13.053-9.79,17.355-21.923,17.355
		C47.346,144,38,144,29,144V85z"/>
	<polygon points="112.613,97.065 101.736,122 123.492,122 	"/>
	<path d="M65.839,102.46c0-2.677-2.176-7.46-9.205-7.46H39v14h17.634C63.579,109,65.839,105.808,65.839,102.46z"/>
	<path d="M187.838,105c0-4.687-3.096-9-10.041-9H161v18h16.798C184.826,114,187.838,109.686,187.838,105z"/>
	<rect y="25" width="230" height="19"/>
	<rect y="186" width="230" height="19"/>
</g>
<g>
</g>
<g>
</g>
<g>
</g>
<g>
</g>
<g>
</g>
<g>
</g>
<g>
</g>
<g>
</g>
<g>
</g>
<g>
</g>
<g>
</g>
<g>
</g>
<g>
</g>
<g>
</g>
<g>
</g>
</svg>
